<?xml version="1.0" standalone="no"?>
<!DOCTYPE svg PUBLIC "-//W3C//DTD SVG 20010904//EN"
 "http://www.w3.org/TR/2001/REC-SVG-20010904/DTD/svg10.dtd">
<svg version="1.0" xmlns="http://www.w3.org/2000/svg"
 width="1024.000000pt" height="1024.000000pt" viewBox="0 0 1024.000000 1024.000000"
 preserveAspectRatio="xMidYMid meet">
<metadata>
Created by potrace 1.16, written by Peter Selinger 2001-2019
</metadata>
<g transform="translate(0.000000,1024.000000) scale(0.100000,-0.100000)"
fill="#BFE9FF" stroke="none">
<path d="M4880 8215 c-63 -7 -133 -15 -156 -19 l-40 -7 -50 -202 -49 -201
-113 -42 c-62 -23 -136 -53 -164 -67 l-52 -26 -169 126 c-154 114 -171 125
-193 115 -40 -19 -255 -195 -320 -263 -84 -89 -164 -181 -164 -191 0 -5 48
-86 107 -181 58 -94 106 -176 106 -182 0 -5 -21 -48 -47 -95 -26 -47 -61 -116
-78 -155 -17 -38 -34 -74 -38 -79 -5 -4 -91 -19 -192 -32 -260 -33 -255 -32
-261 -57 -30 -123 -40 -488 -18 -641 6 -44 13 -81 14 -82 2 -2 102 -24 222
-49 121 -26 222 -49 224 -51 2 -2 21 -49 42 -104 20 -54 55 -133 77 -175 l40
-75 -80 -116 c-44 -64 -98 -143 -120 -175 l-41 -58 44 -58 c98 -129 319 -340
441 -420 l37 -25 106 78 c58 44 135 100 170 126 l65 46 123 -53 c67 -29 141
-59 165 -66 24 -7 47 -20 51 -28 5 -9 30 -104 56 -211 26 -107 48 -196 49
-197 6 -9 318 -33 436 -33 l150 0 0 440 0 440 -48 0 c-223 0 -493 87 -687 220
-327 227 -513 622 -465 990 69 537 543 939 1135 963 l60 2 3 443 2 442 -132
-1 c-73 -1 -185 -7 -248 -14z"/>
<path d="M6159 7805 c-101 -32 -199 -130 -228 -226 -13 -42 -13 -145 -1 -174
7 -17 -18 -46 -158 -187 l-167 -168 -172 0 -173 0 0 100 0 100 -53 0 c-313 0
-652 -158 -838 -390 -67 -83 -150 -243 -175 -335 -24 -87 -30 -302 -11 -390
53 -251 228 -499 457 -650 125 -82 163 -101 300 -147 140 -47 254 -68 370 -68
48 0 128 -3 178 -6 l92 -7 131 -161 c72 -89 141 -169 151 -178 55 -49 163 3
161 76 -1 38 -13 56 -138 202 -33 39 -96 114 -139 167 l-79 97 -204 0 -204 0
3 120 3 120 289 1 290 0 144 -144 144 -144 2 -89 c1 -81 4 -95 35 -151 107
-198 307 -277 507 -201 73 28 170 117 207 190 56 110 57 207 3 317 -83 173
-247 265 -426 240 -36 -5 -83 -18 -104 -29 l-39 -19 -171 164 -171 165 -357 0
-358 0 0 125 0 125 690 0 690 0 22 -46 c56 -121 197 -221 343 -244 135 -22
285 28 386 129 101 101 144 226 127 371 -19 168 -167 330 -339 369 -99 23
-233 5 -331 -45 -65 -33 -146 -116 -178 -183 l-25 -50 -692 -1 -693 0 0 130 0
130 243 0 242 0 125 123 c69 67 152 148 186 180 l61 57 64 -16 c118 -30 239 4
323 91 102 105 129 242 71 360 -36 74 -119 159 -182 187 -61 27 -171 33 -234
13z m169 -205 c39 -24 72 -75 72 -113 0 -49 -35 -103 -83 -126 -53 -25 -61
-26 -113 -2 -50 23 -84 74 -84 127 0 103 119 168 208 114z m828 -1034 c122
-57 146 -190 52 -292 -106 -115 -293 -64 -328 90 -24 106 79 224 195 225 17 1
53 -10 81 -23z m-559 -1092 c82 -39 117 -146 71 -214 -40 -59 -84 -82 -149
-78 -97 7 -168 84 -156 171 14 107 133 168 234 121z"/>
<path d="M2020 3425 l0 -415 89 0 88 0 8 111 c4 61 6 206 5 322 -1 117 -2 222
-1 235 1 22 1 23 144 20 l142 -3 3 -342 2 -343 90 0 90 0 0 415 0 415 -330 0
-330 0 0 -415z"/>
<path d="M5171 3818 c-4 -13 -34 -90 -64 -173 -31 -82 -96 -259 -145 -392
l-89 -243 93 0 93 0 19 53 c11 28 25 71 32 95 l13 42 162 0 161 0 29 -91 c16
-50 34 -93 41 -96 6 -2 49 -3 96 -1 l86 3 -153 410 -153 410 -106 3 c-103 3
-107 2 -115 -20z m219 -470 c0 -5 -49 -8 -109 -8 l-109 0 55 167 56 168 54
-160 c29 -88 53 -163 53 -167z"/>
<path d="M3038 3576 c-21 -8 -49 -21 -63 -30 -32 -21 -34 -21 -45 9 -9 23 -14
25 -75 25 l-65 0 0 -415 0 -416 83 3 82 3 3 137 3 136 56 -20 c122 -42 245 11
311 137 24 45 27 61 27 155 0 90 -3 112 -23 152 -55 111 -181 164 -294 124z
m90 -142 c35 -24 52 -68 52 -134 0 -109 -45 -170 -126 -170 -23 0 -54 4 -69
10 l-26 10 3 137 c3 135 3 138 28 150 35 18 111 16 138 -3z"/>
<path d="M3630 3575 c-111 -31 -180 -106 -201 -220 -28 -152 33 -281 160 -338
67 -30 198 -29 266 2 109 48 156 123 163 253 5 101 -10 157 -58 218 -64 80
-210 118 -330 85z m145 -129 c39 -17 60 -52 68 -119 15 -114 -33 -197 -114
-197 -87 0 -129 52 -129 162 0 79 22 127 70 150 42 22 60 22 105 4z"/>
<path d="M6597 3562 c-37 -10 -72 -23 -77 -28 -6 -6 -6 -24 1 -49 18 -69 14
-66 61 -49 63 23 167 23 201 1 22 -14 27 -25 27 -57 l0 -40 -47 0 c-136 -1
-250 -38 -284 -94 -40 -65 -17 -177 45 -215 79 -49 185 -47 261 4 l36 25 9
-25 c9 -23 14 -25 80 -25 l71 0 -3 224 -3 224 -31 39 c-16 21 -48 47 -70 58
-56 27 -188 31 -277 7z m213 -367 c0 -40 -4 -47 -32 -65 -66 -40 -148 -18
-148 39 0 51 32 70 118 71 l62 0 0 -45z"/>
<path d="M4110 3288 l0 -278 75 0 75 0 0 172 c0 95 4 168 8 163 5 -6 35 -74
67 -152 l58 -143 59 0 59 0 38 83 c20 45 48 109 61 142 13 33 27 64 32 70 4 5
8 -52 8 -125 0 -74 3 -152 6 -172 l7 -38 68 0 69 0 0 274 c0 318 10 293 -115
281 -73 -7 -74 -7 -89 -43 -8 -20 -40 -92 -70 -160 -31 -68 -56 -131 -56 -140
0 -28 -16 -1 -62 108 -25 58 -58 133 -73 168 -32 69 -23 66 -167 67 l-58 0 0
-277z"/>
<path d="M5860 3471 c0 -167 -43 -322 -94 -335 l-26 -6 0 -145 0 -145 75 0 75
0 0 85 0 85 175 0 175 0 0 -85 0 -85 75 0 75 0 0 150 0 150 -30 0 -30 0 0 210
0 210 -235 0 -235 0 0 -89z m269 -37 l31 -6 0 -144 0 -144 -101 0 c-87 0 -100
2 -95 15 18 48 37 129 45 194 5 41 15 78 23 82 16 10 54 11 97 3z"/>
<path d="M7080 3285 l0 -275 85 0 85 0 2 213 3 212 98 3 97 3 0 -216 0 -215
85 0 85 0 0 275 0 275 -270 0 -270 0 0 -275z"/>
<path d="M7690 3500 l0 -60 90 0 90 0 0 -215 0 -215 85 0 85 0 0 215 0 215 90
0 90 0 0 60 0 60 -265 0 -265 0 0 -60z"/>
</g>
</svg>
